<svg xmlns="http://www.w3.org/2000/svg" viewBox="0 0 128 128" width="128" height="128" fill="none" role="img">

<defs>
  <linearGradient id="tealGrad" x1="0" y1="1" x2="1" y2="0">
    <stop offset="0" stop-color="#0F8F90"/>
    <stop offset="1" stop-color="#28B8B8"/>
  </linearGradient>
  <linearGradient id="darkGrad" x1="0" y1="0" x2="1" y2="1">
    <stop offset="0" stop-color="#2F424C"/>
    <stop offset="1" stop-color="#73848B"/>
  </linearGradient>
  <linearGradient id="cubeTop" x1="0" y1="1" x2="1" y2="0">
    <stop offset="0" stop-color="#138D8D"/>
    <stop offset="1" stop-color="#37BBB6"/>
  </linearGradient>
  <radialGradient id="dotGrad" cx="35%" cy="28%" r="75%">
    <stop offset="0" stop-color="#22C0BC"/>
    <stop offset="0.62" stop-color="#119594"/>
    <stop offset="1" stop-color="#087476"/>
  </radialGradient>
</defs>
<path d="M36 79C42 71 43 60 43 49C43 34 52 24 65 22C80 20 91 31 92 47C92 61 94 70 101 79H36Z" stroke="#3B4D57" stroke-width="7" stroke-linejoin="round"/>
<path d="M53 88C56 96 61 100 68 100C75 100 80 96 83 88" stroke="#3B4D57" stroke-width="7" stroke-linecap="round"/>
<path d="M66 22V15" stroke="#3B4D57" stroke-width="7" stroke-linecap="round"/>
<circle cx="94" cy="34" r="13" fill="url(#dotGrad)" stroke="white" stroke-width="3"/>
</svg>
